HIERARCHY
ROOT hip
{
	OFFSET 0.000000 0.000000 0.000000 
	CHANNELS 6 Xposition Yposition Zposition Xrotation Zrotation Yrotation
	JOINT abdomen
	{
		OFFSET 0.000000 3.402643 0.000000 
		CHANNELS 3 Xrotation Zrotation Yrotation
		JOINT chest
		{
			OFFSET 0.000000 8.438565 -0.680529 
			CHANNELS 3 Xrotation Zrotation Yrotation
			JOINT neck
			{
				OFFSET 0.000000 10.207942 -0.272212 
				CHANNELS 3 Xrotation Zrotation Yrotation
				JOINT head
				{
					OFFSET 0.000000 3.130431 0.000000 
					CHANNELS 3 Xrotation Zrotation Yrotation
					End Site
					{
						OFFSET 0.000000 3.130435 0.000000 
					}
				}
			}
			JOINT lCollar
			{
				OFFSET 3.470700 6.669187 -0.816635 
				CHANNELS 3 Yrotation Zrotation Xrotation
				JOINT lShldr
				{
					OFFSET 3.198488 0.000000 0.000000 
					CHANNELS 3 Zrotation Yrotation Xrotation
					JOINT lForeArm
					{
						OFFSET 10.139888 0.000000 0.000000 
						CHANNELS 3 Yrotation Zrotation Xrotation
						JOINT lHand
						{
							OFFSET 8.370511 0.000000 0.000000 
							CHANNELS 3 Zrotation Yrotation Xrotation
							End Site
							{
								OFFSET 4.083176 0.000000 0.000000 
							}
						}
					}
				}
			}
			JOINT rCollar
			{
				OFFSET -3.470700 6.669187 -0.816635 
				CHANNELS 3 Yrotation Zrotation Xrotation
				JOINT rShldr
				{
					OFFSET -3.198488 0.000000 0.000000 
					CHANNELS 3 Zrotation Yrotation Xrotation
					JOINT rForeArm
					{
						OFFSET -10.139888 0.000000 0.000000 
						CHANNELS 3 Yrotation Zrotation Xrotation
						JOINT rHand
						{
							OFFSET -8.370511 0.000000 0.000000 
							CHANNELS 3 Zrotation Yrotation Xrotation
							End Site
							{
								OFFSET -4.083176 0.000000 0.000000 
							}
						}
					}
				}
			}
		}
	}
	JOINT lThigh
	{
		OFFSET 5.308129 -1.633274 1.361059 
		CHANNELS 3 Xrotation Zrotation Yrotation
		JOINT lShin
		{
			OFFSET -2.041588 -20.007561 0.000000 
			CHANNELS 3 Xrotation Zrotation Yrotation
			JOINT lFoot
			{
				OFFSET 0.000000 -19.190928 -1.224953 
				CHANNELS 3 Xrotation Yrotation Zrotation
				End Site
				{
					OFFSET 0.000000 -2.449906 4.627600 
				}
			}
		}
	}
	JOINT rThigh
	{
		OFFSET -5.308129 -1.633274 1.361059 
		CHANNELS 3 Xrotation Zrotation Yrotation
		JOINT rShin
		{
			OFFSET 2.041588 -20.007561 0.000000 
			CHANNELS 3 Xrotation Zrotation Yrotation
			JOINT rFoot
			{
				OFFSET 0.000000 -19.190928 -1.224953 
				CHANNELS 3 Xrotation Yrotation Zrotation
				End Site
				{
					OFFSET 0.000000 -2.449906 4.627600 
				}
			}
		}
	}
}
MOTION
Frames: 11
Frame Time: 0.033333
-0.235235 49.109520 -0.515437 1.140409 -0.624759 -1.591915 0.000000 0.000000 0.000000 0.881190 4.822499 1.103474 3.534745 3.016814 1.290873 8.584171 1.816173 -0.918127 -4.737441 2.365483 1.636531 -72.735229 11.412688 -17.621504 -67.631424 4.871005 35.892368 -6.925295 -0.517560 -3.203182 4.099831 10.205114 0.949623 46.106907 -10.227429 8.757755 67.201271 -0.859567 22.240656 -2.847474 -5.092453 -3.498139 -7.594730 14.542295 8.716046 22.909384 0.779754 21.270245 -5.576119 0.556521 -10.639905 -4.742199 -6.887277 -6.969833 16.937319 3.424875 -13.588677 -11.144185 -0.630842 6.443911 
-0.529719 49.147625 -0.461542 0.831243 -0.039045 -1.708991 0.000000 0.000000 0.000000 0.989910 4.670622 1.157045 3.689885 2.665178 1.437172 8.731888 1.796659 -0.888847 -4.637824 1.573861 1.674686 -73.145508 11.162196 -18.631081 -69.054680 4.957589 37.031757 -7.973884 -0.659239 -3.151982 4.096125 9.813330 1.066442 45.782417 -9.144334 8.048585 68.765289 -1.170076 22.662172 -2.927690 -6.419305 -3.474009 -8.016751 13.367018 8.044893 25.548708 0.944200 20.481686 -6.057947 0.606421 -11.112047 -4.529289 -7.046369 -6.962972 17.184454 3.211514 -13.435036 -11.430111 -0.623486 6.213571 
-0.764328 49.162708 -0.410365 1.197610 0.195280 -1.044916 0.000000 0.000000 0.000000 0.490476 4.730165 0.749251 3.483867 2.675193 1.202597 8.944639 1.601435 -0.722920 -4.990067 1.706403 1.265069 -72.673958 11.381392 -17.726437 -70.454979 4.667031 36.617134 -7.308193 0.380456 -3.258157 3.649163 9.777971 0.652085 45.713421 -8.497980 7.080006 70.575218 -1.662198 24.557928 -2.810596 -6.705824 -3.480361 -9.077724 12.658216 7.400065 27.501600 1.070731 19.381084 -6.591367 0.659350 -11.031074 -4.753976 -6.930041 -6.941827 17.270250 3.200555 -14.278731 -11.692515 -0.640830 6.165590 
-0.997998 49.163811 -0.283240 0.757350 0.341769 -0.732409 0.000000 0.000000 0.000000 0.567512 4.815050 0.505820 3.507916 2.616693 1.114795 9.286088 1.171825 -0.527433 -5.101974 1.374684 1.342669 -71.530037 10.739076 -17.220816 -71.885132 4.505963 38.064415 -7.731876 0.610976 -3.275462 3.373092 9.448761 0.750041 46.221695 -7.580775 5.673840 72.440666 -2.080098 25.730808 -2.422819 -7.121013 -3.483473 -8.592365 12.399778 7.237528 28.310356 1.348762 17.507168 -7.101303 0.697051 -11.072844 -4.246849 -6.901516 -7.300764 17.512056 3.404235 -14.827922 -12.028282 -0.640499 5.910032 
-1.241496 49.148666 -0.103827 0.278459 0.488258 -0.556620 0.000000 0.000000 0.000000 0.548179 4.800201 0.556267 3.555634 2.372525 1.202568 9.653075 1.386639 -0.615291 -4.963029 1.312081 1.313774 -70.755745 9.372167 -16.804480 -74.077187 4.372561 41.370533 -8.369275 1.350424 -3.316251 3.508194 8.951802 0.738815 46.747105 -7.235534 4.293871 74.614449 -2.407888 26.109903 -2.142797 -7.083150 -3.490366 -7.498913 12.399764 7.322094 28.031355 1.469799 15.201414 -7.928876 0.778429 -10.772311 -3.697856 -6.545080 -7.048330 17.808056 3.044792 -15.522017 -12.430933 -0.671284 6.085495 
-1.357076 49.096664 -0.015392 0.567455 0.058584 1.025400 0.000000 0.000000 0.000000 -0.090405 5.166919 -0.234518 3.166919 2.734283 0.469614 10.007318 1.279239 -0.546957 -5.704001 2.026122 0.836221 -69.039833 7.385615 -14.900138 -76.099998 4.242970 43.759621 -7.953209 1.420266 -3.332280 3.001653 9.353921 0.157134 46.192711 -6.340781 3.260198 76.921745 -2.648870 26.785898 -1.181757 -7.589597 -3.533511 -8.055132 12.877667 6.825349 28.471863 2.035469 9.938164 -9.432299 0.843665 -10.032284 -3.717964 -6.038713 -7.149053 17.989637 3.335300 -16.900599 -12.801745 -0.719945 6.186047 
-1.530058 49.009792 0.132289 0.493287 -0.253862 1.074208 0.000000 0.000000 0.000000 -0.482517 5.346898 -0.094576 2.988107 2.626792 0.635441 10.535493 1.699087 -0.713156 -5.547510 2.305456 0.496107 -66.599281 4.565840 -13.123541 -77.929314 3.916230 43.267155 -7.208158 2.065370 -3.388403 3.015622 8.848215 -0.177957 46.469315 -4.862854 2.777583 79.197067 -2.905644 28.386835 -0.024546 -8.612222 -3.579391 -6.989288 13.654201 7.487815 27.866529 1.752147 5.206337 -11.728438 0.900106 -8.806422 -3.951557 -5.364775 -6.816604 18.778841 3.193352 -17.755131 -13.324205 -0.768158 6.354559 
-1.590603 48.994068 0.337029 0.034379 -0.205025 1.308585 0.000000 0.000000 0.000000 -0.647843 5.267284 -0.106673 2.933918 2.402226 0.567136 11.253492 1.845523 -0.800995 -5.665301 1.891083 0.330555 -64.805740 1.420960 -13.147921 -81.414902 3.716747 44.657364 -7.847527 2.997695 -3.463079 3.136682 8.692916 -0.336589 46.233009 -2.861690 1.967581 81.800621 -3.121149 30.555340 2.501088 -10.128901 -3.759881 -3.964087 13.422550 8.162501 24.456619 1.420723 4.337344 -11.972281 1.074447 -10.039342 -3.269452 -5.259096 -6.719792 18.865858 2.929069 -17.809177 -13.586163 -0.805269 6.568798 
-1.588141 48.982666 0.489732 -0.112943 -0.536892 1.630879 0.000000 0.000000 0.000000 -1.088719 5.418770 -0.268121 2.988789 2.499920 0.459825 11.221648 1.933386 -0.840025 -6.191031 2.217850 -0.010079 -63.356220 -1.988136 -13.460069 -85.420555 3.460801 45.669922 -9.854115 2.934514 -3.447787 3.160204 8.788472 -0.740666 45.823826 0.035950 0.863768 85.096436 -3.577696 37.294022 7.822125 -11.539660 -4.195976 -0.089233 13.176511 9.131999 18.098989 0.975239 6.651460 -11.810519 1.136855 -11.003123 -2.673414 -5.013788 -6.853110 18.492809 3.093988 -17.877392 -13.651230 -0.804354 6.614253 
-1.492526 49.011913 0.701462 0.002704 -1.122099 2.353829 0.000000 0.000000 0.000000 -1.765948 5.780604 -0.694654 2.642847 2.666013 -0.078040 11.683685 1.903974 -1.055079 -6.537647 2.650274 -0.544079 -61.575096 -6.254531 -12.773591 -89.676781 3.324668 47.225998 -13.018469 3.718437 -3.537012 2.625269 8.458323 -1.312178 45.763062 4.440685 0.925558 87.885178 -3.922050 42.293659 9.928633 -12.500836 -4.438418 2.478716 13.102025 9.806478 12.789014 0.546620 9.537660 -10.573083 1.086873 -11.750326 -1.757709 -4.529564 -6.924198 17.173323 3.346876 -18.537064 -13.303882 -0.797291 6.645083 
-1.377404 49.079239 0.897791 -0.045644 -1.667248 3.243371 0.000000 0.000000 0.000000 -2.334883 6.072163 -1.243087 2.277905 2.617051 -0.586218 12.382909 2.304173 -1.211529 -7.078639 3.059016 -0.961136 -59.166199 -11.036392 -10.814921 -93.733986 3.544490 50.050587 -14.912092 5.034458 -3.740139 2.318443 8.535759 -1.796964 43.954357 8.370370 2.313103 91.824348 -4.187960 43.950966 9.474255 -14.927194 -4.637217 3.530957 13.331659 9.872160 10.698764 0.740572 10.778291 -9.484268 1.027825 -12.423571 -0.546754 -3.841690 -6.640785 15.241914 3.201687 -20.125179 -12.450469 -0.763509 6.910208 
